<svg xmlns="http://www.w3.org/2000/svg" xmlns:xlink="http://www.w3.org/1999/xlink" x="0px" y="0px" width="70" height="100" viewBox="0 0 500 250"
   xml:space="preserve">
  <defs>
    <filter id="Path_5335" x="196.504" y="76.667" width="68.191" height="51.76" filterUnits="userSpaceOnUse">
      <feOffset dy="3" input="SourceAlpha"/>
      <feGaussianBlur stdDeviation="3" result="blur"/>
      <feFlood flood-opacity="0.161"/>
      <feComposite operator="in" in2="blur"/>
      <feComposite in="SourceGraphic"/>
    </filter>
    <filter id="Path_5336" x="196.504" y="136.264" width="68.191" height="51.76" filterUnits="userSpaceOnUse">
      <feOffset dy="3" input="SourceAlpha"/>
      <feGaussianBlur stdDeviation="3" result="blur-2"/>
      <feFlood flood-opacity="0.161"/>
      <feComposite operator="in" in2="blur-2"/>
      <feComposite in="SourceGraphic"/>
    </filter>
    <filter id="Path_5337" x="0" y="76.667" width="68.191" height="51.76" filterUnits="userSpaceOnUse">
      <feOffset dy="3" input="SourceAlpha"/>
      <feGaussianBlur stdDeviation="3" result="blur-3"/>
      <feFlood flood-opacity="0.161"/>
      <feComposite operator="in" in2="blur-3"/>
      <feComposite in="SourceGraphic"/>
    </filter>
    <filter id="Path_5338" x="136.263" y="0" width="51.762" height="68.194" filterUnits="userSpaceOnUse">
      <feOffset dy="3" input="SourceAlpha"/>
      <feGaussianBlur stdDeviation="3" result="blur-4"/>
      <feFlood flood-opacity="0.161"/>
      <feComposite operator="in" in2="blur-4"/>
      <feComposite in="SourceGraphic"/>
    </filter>
    <filter id="Path_5339" x="174.477" y="26.618" width="63.599" height="63.6" filterUnits="userSpaceOnUse">
      <feOffset dy="3" input="SourceAlpha"/>
      <feGaussianBlur stdDeviation="3" result="blur-5"/>
      <feFlood flood-opacity="0.161"/>
      <feComposite operator="in" in2="blur-5"/>
      <feComposite in="SourceGraphic"/>
    </filter>
    <filter id="Path_5340" x="76.671" y="0" width="51.762" height="68.194" filterUnits="userSpaceOnUse">
      <feOffset dy="3" input="SourceAlpha"/>
      <feGaussianBlur stdDeviation="3" result="blur-6"/>
      <feFlood flood-opacity="0.161"/>
      <feComposite operator="in" in2="blur-6"/>
      <feComposite in="SourceGraphic"/>
    </filter>
    <filter id="Path_5341" x="26.619" y="26.618" width="63.6" height="63.599" filterUnits="userSpaceOnUse">
      <feOffset dy="3" input="SourceAlpha"/>
      <feGaussianBlur stdDeviation="3" result="blur-7"/>
      <feFlood flood-opacity="0.161"/>
      <feComposite operator="in" in2="blur-7"/>
      <feComposite in="SourceGraphic"/>
    </filter>
    <filter id="Path_5342" x="0" y="136.266" width="68.191" height="51.76" filterUnits="userSpaceOnUse">
      <feOffset dy="3" input="SourceAlpha"/>
      <feGaussianBlur stdDeviation="3" result="blur-8"/>
      <feFlood flood-opacity="0.161"/>
      <feComposite operator="in" in2="blur-8"/>
      <feComposite in="SourceGraphic"/>
    </filter>
    <filter id="Path_5343" x="136.263" y="196.5" width="51.762" height="68.194" filterUnits="userSpaceOnUse">
      <feOffset dy="3" input="SourceAlpha"/>
      <feGaussianBlur stdDeviation="3" result="blur-9"/>
      <feFlood flood-opacity="0.161"/>
      <feComposite operator="in" in2="blur-9"/>
      <feComposite in="SourceGraphic"/>
    </filter>
    <filter id="Path_5344" x="174.477" y="174.477" width="63.599" height="63.6" filterUnits="userSpaceOnUse">
      <feOffset dy="3" input="SourceAlpha"/>
      <feGaussianBlur stdDeviation="3" result="blur-10"/>
      <feFlood flood-opacity="0.161"/>
      <feComposite operator="in" in2="blur-10"/>
      <feComposite in="SourceGraphic"/>
    </filter>
    <filter id="Path_5345" x="76.668" y="196.501" width="51.762" height="68.194" filterUnits="userSpaceOnUse">
      <feOffset dy="3" input="SourceAlpha"/>
      <feGaussianBlur stdDeviation="3" result="blur-11"/>
      <feFlood flood-opacity="0.161"/>
      <feComposite operator="in" in2="blur-11"/>
      <feComposite in="SourceGraphic"/>
    </filter>
    <filter id="Path_5346" x="26.618" y="174.478" width="63.599" height="63.6" filterUnits="userSpaceOnUse">
      <feOffset dy="3" input="SourceAlpha"/>
      <feGaussianBlur stdDeviation="3" result="blur-12"/>
      <feFlood flood-opacity="0.161"/>
      <feComposite operator="in" in2="blur-12"/>
      <feComposite in="SourceGraphic"/>
    </filter>
    <filter id="Ellipse_25" x="29.045" y="29.045" width="206.603" height="206.603" filterUnits="userSpaceOnUse">
      <feOffset dy="3" input="SourceAlpha"/>
      <feGaussianBlur stdDeviation="3" result="blur-13"/>
      <feFlood flood-opacity="0.161"/>
      <feComposite operator="in" in2="blur-13"/>
      <feComposite in="SourceGraphic"/>
    </filter>
    <filter id="Ellipse_27" x="104.76" y="158.062" width="30.531" height="30.531" filterUnits="userSpaceOnUse">
      <feOffset dy="3" input="SourceAlpha"/>
      <feGaussianBlur stdDeviation="3" result="blur-14"/>
      <feFlood flood-opacity="0.161"/>
      <feComposite operator="in" in2="blur-14"/>
      <feComposite in="SourceGraphic"/>
    </filter>
    <filter id="Ellipse_28" x="88.583" y="131.837" width="31.479" height="31.479" filterUnits="userSpaceOnUse">
      <feOffset dy="3" input="SourceAlpha"/>
      <feGaussianBlur stdDeviation="3" result="blur-15"/>
      <feFlood flood-opacity="0.161"/>
      <feComposite operator="in" in2="blur-15"/>
      <feComposite in="SourceGraphic"/>
    </filter>
    <filter id="Ellipse_29" x="142.737" y="134.207" width="31.479" height="31.479" filterUnits="userSpaceOnUse">
      <feOffset dy="3" input="SourceAlpha"/>
      <feGaussianBlur stdDeviation="3" result="blur-16"/>
      <feFlood flood-opacity="0.161"/>
      <feComposite operator="in" in2="blur-16"/>
      <feComposite in="SourceGraphic"/>
    </filter>
    <filter id="Ellipse_38" x="135.628" y="175.913" width="31.479" height="31.479" filterUnits="userSpaceOnUse">
      <feOffset dy="3" input="SourceAlpha"/>
      <feGaussianBlur stdDeviation="3" result="blur-17"/>
      <feFlood flood-opacity="0.161"/>
      <feComposite operator="in" in2="blur-17"/>
      <feComposite in="SourceGraphic"/>
    </filter>
    <filter id="Ellipse_30" x="121.41" y="144.034" width="36.218" height="36.218" filterUnits="userSpaceOnUse">
      <feOffset dy="3" input="SourceAlpha"/>
      <feGaussianBlur stdDeviation="3" result="blur-18"/>
      <feFlood flood-opacity="0.161"/>
      <feComposite operator="in" in2="blur-18"/>
      <feComposite in="SourceGraphic"/>
    </filter>
    <filter id="Ellipse_31" x="101.379" y="81.001" width="31.479" height="31.479" filterUnits="userSpaceOnUse">
      <feOffset dy="3" input="SourceAlpha"/>
      <feGaussianBlur stdDeviation="3" result="blur-19"/>
      <feFlood flood-opacity="0.161"/>
      <feComposite operator="in" in2="blur-19"/>
      <feComposite in="SourceGraphic"/>
    </filter>
    <filter id="Ellipse_32" x="139.578" y="96.229" width="36.218" height="36.218" filterUnits="userSpaceOnUse">
      <feOffset dy="3" input="SourceAlpha"/>
      <feGaussianBlur stdDeviation="3" result="blur-20"/>
      <feFlood flood-opacity="0.161"/>
      <feComposite operator="in" in2="blur-20"/>
      <feComposite in="SourceGraphic"/>
    </filter>
    <filter id="Ellipse_35" x="80.34" y="155.721" width="28.635" height="28.635" filterUnits="userSpaceOnUse">
      <feOffset dy="3" input="SourceAlpha"/>
      <feGaussianBlur stdDeviation="3" result="blur-21"/>
      <feFlood flood-opacity="0.161"/>
      <feComposite operator="in" in2="blur-21"/>
      <feComposite in="SourceGraphic"/>
    </filter>
    <filter id="Ellipse_37" x="83.657" y="110.672" width="28.635" height="28.635" filterUnits="userSpaceOnUse">
      <feOffset dy="3" input="SourceAlpha"/>
      <feGaussianBlur stdDeviation="3" result="blur-22"/>
      <feFlood flood-opacity="0.161"/>
      <feComposite operator="in" in2="blur-22"/>
      <feComposite in="SourceGraphic"/>
    </filter>
    <filter id="Polygon_13" x="41.18" y="94.261" width="50.176" height="50.176" filterUnits="userSpaceOnUse">
      <feOffset dy="3" input="SourceAlpha"/>
      <feGaussianBlur stdDeviation="3" result="blur-23"/>
      <feFlood flood-opacity="0.161"/>
      <feComposite operator="in" in2="blur-23"/>
      <feComposite in="SourceGraphic"/>
    </filter>
    <filter id="Polygon_19" x="76.727" y="167.721" width="50.176" height="50.176" filterUnits="userSpaceOnUse">
      <feOffset dy="3" input="SourceAlpha"/>
      <feGaussianBlur stdDeviation="3" result="blur-24"/>
      <feFlood flood-opacity="0.161"/>
      <feComposite operator="in" in2="blur-24"/>
      <feComposite in="SourceGraphic"/>
    </filter>
    <filter id="Polygon_20" x="135.493" y="50.186" width="50.176" height="50.176" filterUnits="userSpaceOnUse">
      <feOffset dy="3" input="SourceAlpha"/>
      <feGaussianBlur stdDeviation="3" result="blur-25"/>
      <feFlood flood-opacity="0.161"/>
      <feComposite operator="in" in2="blur-25"/>
      <feComposite in="SourceGraphic"/>
    </filter>
    <filter id="Polygon_18" x="63.929" y="59.191" width="50.176" height="50.176" filterUnits="userSpaceOnUse">
      <feOffset dy="3" input="SourceAlpha"/>
      <feGaussianBlur stdDeviation="3" result="blur-26"/>
      <feFlood flood-opacity="0.161"/>
      <feComposite operator="in" in2="blur-26"/>
      <feComposite in="SourceGraphic"/>
    </filter>
    <filter id="Polygon_14" x="161.559" y="72.934" width="50.176" height="50.176" filterUnits="userSpaceOnUse">
      <feOffset dy="3" input="SourceAlpha"/>
      <feGaussianBlur stdDeviation="3" result="blur-27"/>
      <feFlood flood-opacity="0.161"/>
      <feComposite operator="in" in2="blur-27"/>
      <feComposite in="SourceGraphic"/>
    </filter>
    <filter id="Polygon_22" x="166.772" y="111.798" width="50.176" height="50.176" filterUnits="userSpaceOnUse">
      <feOffset dy="3" input="SourceAlpha"/>
      <feGaussianBlur stdDeviation="3" result="blur-28"/>
      <feFlood flood-opacity="0.161"/>
      <feComposite operator="in" in2="blur-28"/>
      <feComposite in="SourceGraphic"/>
    </filter>
    <filter id="Polygon_15" x="149.71" y="149.238" width="50.176" height="50.176" filterUnits="userSpaceOnUse">
      <feOffset dy="3" input="SourceAlpha"/>
      <feGaussianBlur stdDeviation="3" result="blur-29"/>
      <feFlood flood-opacity="0.161"/>
      <feComposite operator="in" in2="blur-29"/>
      <feComposite in="SourceGraphic"/>
    </filter>
    <filter id="Polygon_16" x="101.843" y="42.603" width="50.176" height="50.176" filterUnits="userSpaceOnUse">
      <feOffset dy="3" input="SourceAlpha"/>
      <feGaussianBlur stdDeviation="3" result="blur-30"/>
      <feFlood flood-opacity="0.161"/>
      <feComposite operator="in" in2="blur-30"/>
      <feComposite in="SourceGraphic"/>
    </filter>
    <filter id="Polygon_17" x="103.265" y="106.584" width="50.176" height="50.176" filterUnits="userSpaceOnUse">
      <feOffset dy="3" input="SourceAlpha"/>
      <feGaussianBlur stdDeviation="3" result="blur-31"/>
      <feFlood flood-opacity="0.161"/>
      <feComposite operator="in" in2="blur-31"/>
      <feComposite in="SourceGraphic"/>
    </filter>
    <filter id="Polygon_23" x="49.237" y="136.441" width="50.176" height="50.176" filterUnits="userSpaceOnUse">
      <feOffset dy="3" input="SourceAlpha"/>
      <feGaussianBlur stdDeviation="3" result="blur-32"/>
      <feFlood flood-opacity="0.161"/>
      <feComposite operator="in" in2="blur-32"/>
      <feComposite in="SourceGraphic"/>
    </filter>
  </defs>
  <g id="Group_4239" data-name="Group 4239" transform="translate(-9598.179 -12947.179)">
    <g transform="matrix(1, 0, 0, 1, 9598.18, 12947.18)" filter="url(#Path_5335)">
      <path id="Path_5335-2" data-name="Path 5335" d="M442.952,171.334,419.9,177.512a7.109,7.109,0,0,0,3.68,13.733l23.057-6.178.164.614A7.109,7.109,0,1,0,460.53,182l-4.009-14.962a7.109,7.109,0,0,0-13.733,3.68Z" transform="translate(-207.1 -77.08)" fill="#dd6274" stroke="#333" stroke-linejoin="round" stroke-width="4"/>
    </g>
    <g transform="matrix(1, 0, 0, 1, 9598.18, 12947.18)" filter="url(#Path_5336)">
      <path id="Path_5336-2" data-name="Path 5336" d="M455.5,288.3a7.109,7.109,0,0,0-8.707,5.027l-.164.614-23.057-6.178A7.109,7.109,0,0,0,419.9,301.5l23.057,6.178-.164.614a7.109,7.109,0,1,0,13.733,3.68l4.009-14.961A7.109,7.109,0,0,0,455.5,288.3Z" transform="translate(-207.1 -143.24)" fill="#dd6274" stroke="#333" stroke-linejoin="round" stroke-width="4"/>
    </g>
    <g transform="matrix(1, 0, 0, 1, 9598.18, 12947.18)" filter="url(#Path_5337)">
      <path id="Path_5337-2" data-name="Path 5337" d="M5.271,190.708a7.109,7.109,0,0,0,8.707-5.027l.164-.614L37.2,191.246a7.109,7.109,0,1,0,3.68-13.733l-23.057-6.178.164-.614a7.109,7.109,0,1,0-13.733-3.68L.244,182a7.109,7.109,0,0,0,5.027,8.707Z" transform="translate(11.02 -77.08)" fill="#dd6274" stroke="#333" stroke-linejoin="round" stroke-width="4"/>
    </g>
    <g transform="matrix(1, 0, 0, 1, 9598.18, 12947.18)" filter="url(#Path_5338)">
      <path id="Path_5338-2" data-name="Path 5338" d="M311.967,4.253,297.005.244a7.109,7.109,0,0,0-3.68,13.733l.614.164L287.761,37.2a7.109,7.109,0,1,0,13.733,3.68l6.178-23.057.614.164a7.109,7.109,0,1,0,3.68-13.733Z" transform="translate(-140.23 8.02)" fill="#dd6274" stroke="#333" stroke-linejoin="round" stroke-width="4"/>
    </g>
    <g transform="matrix(1, 0, 0, 1, 9598.18, 12947.18)" filter="url(#Path_5339)">
      <path id="Path_5339-2" data-name="Path 5339" d="M380.241,95.638l16.879-16.879.45.45a7.109,7.109,0,0,0,10.053-10.053L396.67,58.2a7.109,7.109,0,1,0-10.054,10.053l.45.45L370.188,85.585a7.109,7.109,0,1,0,10.053,10.053Z" transform="translate(-182.63 -21.5)" fill="#dd6274" stroke="#333" stroke-linejoin="round" stroke-width="4"/>
    </g>
    <g transform="matrix(1, 0, 0, 1, 9598.18, 12947.18)" filter="url(#Path_5340)">
      <path id="Path_5340-2" data-name="Path 5340" d="M185.072,14.142l.614-.164A7.109,7.109,0,0,0,182.006.244L167.045,4.253a7.109,7.109,0,1,0,3.68,13.733l.614-.164,6.178,23.057A7.109,7.109,0,0,0,191.25,37.2Z" transform="translate(-74.08 8.02)" fill="#dd6274" stroke="#333" stroke-linejoin="round" stroke-width="4"/>
    </g>
    <g transform="matrix(1, 0, 0, 1, 9598.18, 12947.18)" filter="url(#Path_5341)">
      <path id="Path_5341-2" data-name="Path 5341" d="M78.759,68.706l.45-.45A7.109,7.109,0,1,0,69.155,58.2L58.2,69.155A7.109,7.109,0,0,0,68.256,79.209l.45-.45L85.585,95.638A7.109,7.109,0,0,0,95.638,85.584Z" transform="translate(-18.5 -21.5)" fill="#dd6274" stroke="#333" stroke-linejoin="round" stroke-width="4"/>
    </g>
    <g transform="matrix(1, 0, 0, 1, 9598.18, 12947.18)" filter="url(#Path_5342)">
      <path id="Path_5342-2" data-name="Path 5342" d="M17.822,307.676,40.879,301.5a7.109,7.109,0,1,0-3.68-13.733l-23.057,6.178-.164-.614a7.109,7.109,0,0,0-13.733,3.68L4.253,311.97a7.109,7.109,0,1,0,13.733-3.68Z" transform="translate(11.02 -143.24)" fill="#dd6274" stroke="#333" stroke-linejoin="round" stroke-width="4"/>
    </g>
    <g transform="matrix(1, 0, 0, 1, 9598.18, 12947.18)" filter="url(#Path_5343)">
      <path id="Path_5343-2" data-name="Path 5343" d="M308.287,442.783l-.614.164-6.178-23.057a7.109,7.109,0,1,0-13.733,3.68l6.178,23.057-.614.164a7.109,7.109,0,0,0,3.68,13.733l14.962-4.009a7.109,7.109,0,1,0-3.68-13.733Z" transform="translate(-140.23 -210.1)" fill="#dd6274" stroke="#333" stroke-linejoin="round" stroke-width="4"/>
    </g>
    <g transform="matrix(1, 0, 0, 1, 9598.18, 12947.18)" filter="url(#Path_5344)">
      <path id="Path_5344-2" data-name="Path 5344" d="M397.568,386.616l-.45.45-16.879-16.879a7.109,7.109,0,1,0-10.054,10.054l16.879,16.879-.45.45a7.109,7.109,0,1,0,10.054,10.054l10.953-10.953a7.109,7.109,0,0,0-10.053-10.054Z" transform="translate(-182.63 -185.63)" fill="#dd6274" stroke="#333" stroke-linejoin="round" stroke-width="4"/>
    </g>
    <g transform="matrix(1, 0, 0, 1, 9598.18, 12947.18)" filter="url(#Path_5345)">
      <path id="Path_5345-2" data-name="Path 5345" d="M186.222,414.864a7.111,7.111,0,0,0-8.707,5.026l-6.178,23.057-.614-.164a7.109,7.109,0,1,0-3.68,13.733L182,460.525a7.109,7.109,0,1,0,3.68-13.733l-.614-.164,6.178-23.057A7.108,7.108,0,0,0,186.222,414.864Z" transform="translate(-74.08 -210.1)" fill="#dd6274" stroke="#333" stroke-linejoin="round" stroke-width="4"/>
    </g>
    <g transform="matrix(1, 0, 0, 1, 9598.18, 12947.18)" filter="url(#Path_5346)">
      <path id="Path_5346-2" data-name="Path 5346" d="M85.584,370.186,68.7,387.065l-.45-.45A7.109,7.109,0,0,0,58.2,396.669l10.953,10.953a7.109,7.109,0,1,0,10.054-10.053l-.45-.45,16.879-16.879a7.109,7.109,0,1,0-10.053-10.053Z" transform="translate(-18.5 -185.63)" fill="#dd6274" stroke="#333" stroke-linejoin="round" stroke-width="4"/>
    </g>
    <g transform="matrix(1, 0, 0, 1, 9598.18, 12947.18)" filter="url(#Ellipse_25)">
      <ellipse id="Ellipse_25-2" data-name="Ellipse 25" cx="92.301" cy="92.301" rx="92.301" ry="92.301" transform="translate(40.05 37.05)" fill="#d5d5d5" stroke="#333" stroke-linejoin="round" stroke-width="4"/>
    </g>
    <g transform="matrix(1, 0, 0, 1, 9598.18, 12947.18)" filter="url(#Ellipse_27)">
      <ellipse id="Ellipse_27-2" data-name="Ellipse 27" cx="4.265" cy="4.265" rx="4.265" ry="4.265" transform="translate(115.76 166.06)" fill="#8ee26b" stroke="#333" stroke-linejoin="round" stroke-width="4"/>
    </g>
    <g transform="matrix(1, 0, 0, 1, 9598.18, 12947.18)" filter="url(#Ellipse_28)">
      <ellipse id="Ellipse_28-2" data-name="Ellipse 28" cx="4.739" cy="4.739" rx="4.739" ry="4.739" transform="translate(99.58 139.84)" fill="#eef3f7" stroke="#333" stroke-linejoin="round" stroke-width="4"/>
    </g>
    <g transform="matrix(1, 0, 0, 1, 9598.18, 12947.18)" filter="url(#Ellipse_29)">
      <ellipse id="Ellipse_29-2" data-name="Ellipse 29" cx="4.739" cy="4.739" rx="4.739" ry="4.739" transform="translate(153.74 142.21)" fill="#ffbe00" stroke="#333" stroke-linejoin="round" stroke-width="4"/>
    </g>
    <g transform="matrix(1, 0, 0, 1, 9598.18, 12947.18)" filter="url(#Ellipse_38)">
      <ellipse id="Ellipse_38-2" data-name="Ellipse 38" cx="4.739" cy="4.739" rx="4.739" ry="4.739" transform="translate(146.63 183.91)" fill="#ffbe00" stroke="#333" stroke-linejoin="round" stroke-width="4"/>
    </g>
    <g transform="matrix(1, 0, 0, 1, 9598.18, 12947.18)" filter="url(#Ellipse_30)">
      <ellipse id="Ellipse_30-2" data-name="Ellipse 30" cx="7.109" cy="7.109" rx="7.109" ry="7.109" transform="translate(132.41 152.03)" fill="#f07f22" stroke="#333" stroke-linejoin="round" stroke-width="4"/>
    </g>
    <g transform="matrix(1, 0, 0, 1, 9598.18, 12947.18)" filter="url(#Ellipse_31)">
      <ellipse id="Ellipse_31-2" data-name="Ellipse 31" cx="4.739" cy="4.739" rx="4.739" ry="4.739" transform="translate(112.38 89)" fill="#ffbe00" stroke="#333" stroke-linejoin="round" stroke-width="4"/>
    </g>
    <g transform="matrix(1, 0, 0, 1, 9598.18, 12947.18)" filter="url(#Ellipse_32)">
      <ellipse id="Ellipse_32-2" data-name="Ellipse 32" cx="7.109" cy="7.109" rx="7.109" ry="7.109" transform="translate(150.58 104.23)" fill="#eef3f7" stroke="#333" stroke-linejoin="round" stroke-width="4"/>
    </g>
    <g transform="matrix(1, 0, 0, 1, 9598.18, 12947.18)" filter="url(#Ellipse_35)">
      <ellipse id="Ellipse_35-2" data-name="Ellipse 35" cx="3.318" cy="3.318" rx="3.318" ry="3.318" transform="translate(91.34 163.72)" fill="#f07f22" stroke="#333" stroke-linejoin="round" stroke-width="4"/>
    </g>
    <g transform="matrix(1, 0, 0, 1, 9598.18, 12947.18)" filter="url(#Ellipse_37)">
      <ellipse id="Ellipse_37-2" data-name="Ellipse 37" cx="3.318" cy="3.318" rx="3.318" ry="3.318" transform="translate(94.66 118.67)" fill="#8ee26b" stroke="#333" stroke-linejoin="round" stroke-width="4"/>
    </g>
    <g transform="matrix(1, 0, 0, 1, 9598.18, 12947.18)" filter="url(#Polygon_13)">
      <path id="Polygon_13-2" data-name="Polygon 13" d="M9.9,5.3a4,4,0,0,1,6.749,0l5.983,9.4a4,4,0,0,1-3.375,6.148H7.287a4,4,0,0,1-3.375-6.148Z" transform="translate(48.29 117.14) rotate(-45)" fill="#dd6274" stroke="#333" stroke-linejoin="round" stroke-width="4"/>
    </g>
    <g transform="matrix(1, 0, 0, 1, 9598.18, 12947.18)" filter="url(#Polygon_19)">
      <path id="Polygon_19-2" data-name="Polygon 19" d="M9.9,5.3a4,4,0,0,1,6.749,0l5.983,9.4a4,4,0,0,1-3.375,6.148H7.287a4,4,0,0,1-3.375-6.148Z" transform="translate(83.84 190.6) rotate(-45)" fill="#dd6274" stroke="#333" stroke-linejoin="round" stroke-width="4"/>
    </g>
    <g transform="matrix(1, 0, 0, 1, 9598.18, 12947.18)" filter="url(#Polygon_20)">
      <path id="Polygon_20-2" data-name="Polygon 20" d="M9.9,5.3a4,4,0,0,1,6.749,0l5.983,9.4a4,4,0,0,1-3.375,6.148H7.287a4,4,0,0,1-3.375-6.148Z" transform="translate(142.6 73.07) rotate(-45)" fill="#dd6274" stroke="#333" stroke-linejoin="round" stroke-width="4"/>
    </g>
    <g transform="matrix(1, 0, 0, 1, 9598.18, 12947.18)" filter="url(#Polygon_18)">
      <path id="Polygon_18-2" data-name="Polygon 18" d="M9.9,5.3a4,4,0,0,1,6.749,0l5.983,9.4a4,4,0,0,1-3.375,6.148H7.287a4,4,0,0,1-3.375-6.148Z" transform="translate(71.04 82.07) rotate(-45)" fill="#dd6274" stroke="#333" stroke-linejoin="round" stroke-width="4"/>
    </g>
    <g transform="matrix(1, 0, 0, 1, 9598.18, 12947.18)" filter="url(#Polygon_14)">
      <path id="Polygon_14-2" data-name="Polygon 14" d="M9.9,5.3a4,4,0,0,1,6.749,0l5.983,9.4a4,4,0,0,1-3.375,6.148H7.287a4,4,0,0,1-3.375-6.148Z" transform="translate(168.67 95.81) rotate(-45)" fill="#dd6274" stroke="#333" stroke-linejoin="round" stroke-width="4"/>
    </g>
    <g transform="matrix(1, 0, 0, 1, 9598.18, 12947.18)" filter="url(#Polygon_22)">
      <path id="Polygon_22-2" data-name="Polygon 22" d="M9.9,5.3a4,4,0,0,1,6.749,0l5.983,9.4a4,4,0,0,1-3.375,6.148H7.287a4,4,0,0,1-3.375-6.148Z" transform="translate(173.88 134.68) rotate(-45)" fill="#dd6274" stroke="#333" stroke-linejoin="round" stroke-width="4"/>
    </g>
    <g transform="matrix(1, 0, 0, 1, 9598.18, 12947.18)" filter="url(#Polygon_15)">
      <path id="Polygon_15-2" data-name="Polygon 15" d="M9.9,5.3a4,4,0,0,1,6.749,0l5.983,9.4a4,4,0,0,1-3.375,6.148H7.287a4,4,0,0,1-3.375-6.148Z" transform="translate(156.82 172.12) rotate(-45)" fill="#dd6274" stroke="#333" stroke-linejoin="round" stroke-width="4"/>
    </g>
    <g transform="matrix(1, 0, 0, 1, 9598.18, 12947.18)" filter="url(#Polygon_16)">
      <path id="Polygon_16-2" data-name="Polygon 16" d="M9.9,5.3a4,4,0,0,1,6.749,0l5.983,9.4a4,4,0,0,1-3.375,6.148H7.287a4,4,0,0,1-3.375-6.148Z" transform="translate(108.96 65.48) rotate(-45)" fill="#dd6274" stroke="#333" stroke-linejoin="round" stroke-width="4"/>
    </g>
    <g transform="matrix(1, 0, 0, 1, 9598.18, 12947.18)" filter="url(#Polygon_17)">
      <path id="Polygon_17-2" data-name="Polygon 17" d="M9.9,5.3a4,4,0,0,1,6.749,0l5.983,9.4a4,4,0,0,1-3.375,6.148H7.287a4,4,0,0,1-3.375-6.148Z" transform="translate(110.38 129.46) rotate(-45)" fill="#dd6274" stroke="#333" stroke-linejoin="round" stroke-width="4"/>
    </g>
    <g transform="matrix(1, 0, 0, 1, 9598.18, 12947.18)" filter="url(#Polygon_23)">
      <path id="Polygon_23-2" data-name="Polygon 23" d="M9.9,5.3a4,4,0,0,1,6.749,0l5.983,9.4a4,4,0,0,1-3.375,6.148H7.287a4,4,0,0,1-3.375-6.148Z" transform="translate(56.35 159.32) rotate(-45)" fill="#dd6274" stroke="#333" stroke-linejoin="round" stroke-width="4"/>
    </g>
  </g>
</svg>
